<svg width="30" height="36" viewBox="0 0 30 36" fill="none" xmlns="http://www.w3.org/2000/svg">
<path d="M19.0812 24.9C19.0812 24.105 18.4937 23.4 17.8312 23.4H13.1688C12.5063 23.4 11.9188 24.105 11.9188 24.9V28.5C11.9188 29.295 12.5063 30 13.1688 30H17.8312C18.4937 30 19.0812 29.295 19.0812 28.5V24.9ZM10.1625 24.9C10.1625 24.105 9.575 23.4 8.9125 23.4H4.25C3.5875 23.4 3 24.105 3 24.9V28.5C3 29.295 3.5875 30 4.25 30H8.9125C9.575 30 10.1625 29.295 10.1625 28.5V24.9ZM28 24.9C28 24.105 27.4125 23.4 26.75 23.4H22.0875C21.425 23.4 20.8375 24.105 20.8375 24.9V28.5C20.8375 29.295 21.425 30 22.0875 30H26.75C27.4125 30 28 29.295 28 28.5V24.9ZM19.0812 16.2C19.0812 15.405 18.4937 14.7 17.8312 14.7H13.1688C12.5063 14.7 11.9188 15.405 11.9188 16.2V19.8C11.9188 20.595 12.5063 21.3 13.1688 21.3H17.8312C18.4937 21.3 19.0812 20.595 19.0812 19.8V16.2ZM10.1625 16.2C10.1625 15.405 9.575 14.7 8.9125 14.7H4.25C3.5875 14.7 3 15.405 3 16.2V19.8C3 20.595 3.5875 21.3 4.25 21.3H8.9125C9.575 21.3 10.1625 20.595 10.1625 19.8V16.2ZM28 16.2C28 15.405 27.4125 14.7 26.75 14.7H22.0875C21.425 14.7 20.8375 15.405 20.8375 16.2V19.8C20.8375 20.595 21.425 21.3 22.0875 21.3H26.75C27.4125 21.3 28 20.595 28 19.8V16.2ZM19.0812 7.5C19.0812 6.705 18.4937 6 17.8312 6H13.1688C12.5063 6 11.9188 6.705 11.9188 7.5V11.1C11.9188 11.895 12.5063 12.6 13.1688 12.6H17.8312C18.4937 12.6 19.0812 11.895 19.0812 11.1V7.5ZM10.1625 7.5C10.1625 6.705 9.575 6 8.9125 6H4.25C3.5875 6 3 6.705 3 7.5V11.1C3 11.895 3.5875 12.6 4.25 12.6H8.9125C9.575 12.6 10.1625 11.895 10.1625 11.1V7.5ZM28 7.5C28 6.705 27.4125 6 26.75 6H22.0875C21.425 6 20.8375 6.705 20.8375 7.5V11.1C20.8375 11.895 21.425 12.6 22.0875 12.6H26.75C27.4125 12.6 28 11.895 28 11.1V7.5Z" fill="white"/>
</svg>
