<svg width="37" height="37" viewBox="0 0 37 37" fill="none" xmlns="http://www.w3.org/2000/svg">
<path d="M17.3267 23.9467C15.7157 28.5779 15.4181 29.267 15.4181 29.8667C15.4181 30.5466 16.0117 30.8333 16.3848 30.8333C16.8041 30.8333 18.0929 30.3693 22.2878 28.9078L17.3267 23.9467ZM18.6957 22.5777L23.6599 27.5419L33.5389 17.6737C33.7902 17.4224 33.9166 17.094 33.9166 16.7625C33.9166 16.4342 33.7902 16.1043 33.5389 15.8514C32.6447 14.9588 31.2911 13.6052 30.3954 12.7126C30.1441 12.4613 29.8142 12.3349 29.4843 12.3349C29.1559 12.3349 28.8245 12.4613 28.5716 12.7126L18.6957 22.5777ZM13.8749 21.1979C13.8749 20.5782 13.3261 20.0417 12.7187 20.0417C8.77046 20.0417 8.18771 20.0417 4.2395 20.0417C3.63209 20.0417 3.08325 20.5782 3.08325 21.1979C3.08325 21.8177 3.63209 22.3542 4.2395 22.3542H12.7187C13.3261 22.3542 13.8749 21.8177 13.8749 21.1979ZM21.5833 16.5729C21.5833 15.9532 21.0344 15.4167 20.427 15.4167C16.4788 15.4167 8.18771 15.4167 4.2395 15.4167C3.63209 15.4167 3.08325 15.9532 3.08325 16.5729C3.08325 17.1927 3.63209 17.7292 4.2395 17.7292H20.427C21.0344 17.7292 21.5833 17.1927 21.5833 16.5729ZM21.5833 11.9479C21.5833 11.3282 21.0344 10.7917 20.427 10.7917C16.4788 10.7917 8.18771 10.7917 4.2395 10.7917C3.63209 10.7917 3.08325 11.3282 3.08325 11.9479C3.08325 12.5677 3.63209 13.1042 4.2395 13.1042H20.427C21.0344 13.1042 21.5833 12.5677 21.5833 11.9479ZM21.5833 7.32292C21.5833 6.70317 21.0344 6.16667 20.427 6.16667C16.4788 6.16667 8.18771 6.16667 4.2395 6.16667C3.63209 6.16667 3.08325 6.70317 3.08325 7.32292C3.08325 7.94267 3.63209 8.47917 4.2395 8.47917H20.427C21.0344 8.47917 21.5833 7.94267 21.5833 7.32292Z" fill="white"/>
</svg>
