<svg width="600" height="683" viewBox="0 0 600 683" fill="none" xmlns="http://www.w3.org/2000/svg">
<path d="M96.9451 0H390.505C401.292 1.36 411.732 5.96 419.358 13.8C455.958 50.52 492.558 87.24 529.145 123.973C539.465 133.4 545.145 147.373 544.465 161.347C544.425 208.44 544.452 255.533 544.452 302.64C559.838 304.12 574.665 311.28 584.772 323.067C594.332 333.867 599.625 348.2 599.625 362.6C599.692 421.733 599.652 480.853 599.652 539.987C599.705 548.667 598.132 557.4 594.625 565.36C586.145 585.267 566.198 599.6 544.598 601.187C544.265 613.2 544.638 625.213 544.425 637.227C544.198 647.68 540.345 658 533.612 665.987C525.758 675.587 513.918 681.333 501.692 682.667H99.0517C88.2517 681.933 77.6651 677.653 69.7717 670.2C60.6917 661.84 55.1851 649.747 54.9584 637.413C54.7984 625.36 54.9717 613.307 54.8917 601.267C33.4251 599.32 13.5184 585.307 5.05173 565.4C1.3184 557.027 -0.148272 547.8 0.0117282 538.68C0.0517282 480.013 -0.0149375 421.347 0.0517291 362.68C0.0117291 348.893 4.86506 335.147 13.6917 324.547C23.7584 312.08 38.9851 304.28 54.8784 302.693C54.9451 217.333 54.8651 131.96 54.9184 46.6C54.8784 35.4267 58.9851 24.3067 66.3851 15.9333C74.0651 6.92 85.3184 1.58667 96.9451 0ZM94.9451 46.56C94.8517 131.893 94.9317 217.227 94.9051 302.56C231.412 302.6 367.918 302.573 504.438 302.573C504.425 254.613 504.492 206.64 504.398 158.667C504.612 155.587 502.065 153.52 500.145 151.533C463.718 115.107 427.478 78.48 391.025 42.0933C388.532 39.24 384.478 40.1333 381.158 39.9733C288.238 40.0267 195.318 39.9867 102.398 40C98.5851 39.4667 94.6917 42.6133 94.9451 46.56ZM54.9051 343.267C46.3317 345.427 39.9051 353.773 40.0384 362.613C40.0117 422.213 40.0117 481.813 40.0384 541.413C39.9984 548.867 44.5317 556.08 51.2384 559.307C56.3317 561.96 62.2251 561.413 67.7851 561.413C222.465 561.427 377.158 561.427 531.838 561.413C537.385 561.4 543.278 561.973 548.372 559.32C555.612 555.96 560.078 547.933 559.665 540.04C559.625 480.88 559.692 421.72 559.638 362.56C559.852 351.987 550.478 342.467 539.878 342.6C382.558 342.56 225.225 342.573 67.8917 342.587C63.5584 342.653 59.1317 342.16 54.9051 343.267ZM94.9051 601.44C94.9451 612.987 94.8384 624.533 94.9451 636.067C94.6784 640.04 98.5984 643.187 102.425 642.667C234.038 642.667 365.652 642.68 497.265 642.653C501.052 643.08 504.732 639.813 504.438 635.933C504.532 624.44 504.452 612.933 504.465 601.427C367.945 601.427 231.425 601.4 94.9051 601.44Z" fill="white"/>
<path d="M126.559 368.333C132.839 365.48 139.879 367.227 146.505 366.853C159.345 367.253 172.572 365.453 185.025 369.44C200.612 374.187 213.785 386.253 219.759 401.427C225.359 415.293 224.772 431.507 218.145 444.92C211.438 458.8 198.585 469.493 183.759 473.667C174.239 476.547 164.199 475.76 154.385 475.92C154.279 487.52 154.545 499.133 154.279 510.733C153.652 521.28 143.572 529.96 133.065 529.067C123.012 528.533 114.372 519.507 114.412 509.413C114.345 468.52 114.399 427.613 114.359 386.707C114.105 378.827 119.292 371.253 126.559 368.333ZM154.532 406.827C154.479 416.52 154.505 426.213 154.518 435.907C159.452 435.84 164.385 436.067 169.319 435.8C176.332 435.533 182.772 429.747 183.438 422.707C184.185 416.173 179.545 409.893 173.452 407.827C167.319 406.08 160.812 407.333 154.532 406.827Z" fill="white"/>
<path d="M260.172 367.16C265.759 366.227 271.465 367.2 277.119 366.947C292.572 367.227 308.679 365.333 323.385 371.307C343.612 378.667 358.079 397.147 363.932 417.44C370.305 439.493 369.852 463.853 361.158 485.227C354.385 501.907 341.559 516.493 324.812 523.587C315.692 527.6 305.665 529.013 295.759 528.893C284.625 528.853 273.479 529.307 262.359 528.973C251.999 528.067 244.158 518.28 244.078 508.147C243.985 467.64 243.985 427.133 243.998 386.627C244.118 377.427 251.185 369.027 260.172 367.16ZM284.719 406.867C284.345 434.2 284.732 461.56 284.599 488.907C290.532 488.92 296.505 489.133 302.425 488.587C311.359 487.693 318.772 481.2 322.612 473.36C328.758 461 329.278 446.493 326.612 433.147C324.652 423.92 320.132 414.253 311.345 409.787C303.119 405.493 293.585 407.387 284.719 406.867Z" fill="white"/>
<path d="M397.238 378.707C400.385 371.573 407.985 366.733 415.798 366.933C432.278 366.947 448.772 366.893 465.265 366.96C475.238 366.893 484.212 375.36 484.865 385.293C485.958 395.947 477.132 406.32 466.412 406.827C456.092 407.093 445.772 406.867 435.452 406.92C435.385 413.56 435.412 420.2 435.425 426.84C444.438 426.933 453.452 426.68 462.465 426.947C473.025 427.467 481.798 437.52 480.972 448.053C480.505 457.747 472.158 466.267 462.438 466.76C453.438 466.987 444.425 466.76 435.425 466.853C435.318 481.427 435.558 496.013 435.332 510.587C434.772 521.053 424.892 529.787 414.438 529.08C404.198 528.747 395.318 519.52 395.438 509.253C395.372 471.467 395.358 433.707 395.412 395.92C395.558 390.173 394.652 384.067 397.238 378.707Z" fill="white"/>
</svg>
