<svg width="26" height="28" viewBox="0 0 26 28" fill="none" xmlns="http://www.w3.org/2000/svg">
<path d="M18.4167 3.5V1.16667C18.4167 0.522667 18.9009 0 19.5 0C20.0991 0 20.5833 0.522667 20.5833 1.16667V3.5C20.5833 4.144 20.0991 4.66667 19.5 4.66667C18.9009 4.66667 18.4167 4.144 18.4167 3.5ZM5.41667 4.66667C6.01575 4.66667 6.5 4.144 6.5 3.5V1.16667C6.5 0.522667 6.01575 0 5.41667 0C4.81758 0 4.33333 0.522667 4.33333 1.16667V3.5C4.33333 4.144 4.81758 4.66667 5.41667 4.66667ZM19.5 19.8333V16.3333H18.4167V21H21.6667V19.8333H19.5ZM14.0833 20.4167C14.0833 23.3112 16.2706 25.6667 18.9583 25.6667C21.6461 25.6667 23.8333 23.3112 23.8333 20.4167C23.8333 17.5222 21.6461 15.1667 18.9583 15.1667C16.2706 15.1667 14.0833 17.5222 14.0833 20.4167ZM26 20.4167C26 24.605 22.8475 28 18.9583 28C15.0692 28 11.9167 24.605 11.9167 20.4167C11.9167 16.2283 15.0692 12.8333 18.9583 12.8333C22.8475 12.8333 26 16.2283 26 20.4167ZM10.5766 24.5H2.16667V9.33333H22.75V11.3902C23.5376 11.7752 24.2656 12.2733 24.9167 12.8695V2.33333H21.6667V3.5C21.6667 5.03533 20.2822 6.22883 18.7872 5.70967C17.8869 5.397 17.3333 4.4135 17.3333 3.395V2.33333H7.58333V3.5C7.58333 5.03533 6.19883 6.22883 4.70383 5.70967C3.80358 5.397 3.25 4.4135 3.25 3.395V2.33333H0V26.8333H11.9503C11.3967 26.1322 10.9341 25.3482 10.5766 24.5Z" fill="white"/>
</svg>
