<svg width="600" height="683" viewBox="0 0 600 683" fill="none" xmlns="http://www.w3.org/2000/svg">
<path d="M97.0344 0H390.354C397.034 0.986667 403.701 2.74667 409.541 6.24C415.941 9.82667 420.874 15.3467 425.994 20.4667C460.808 55.4267 495.674 90.3333 530.448 125.32C539.341 134 544.488 146.28 544.408 158.707C544.461 206.68 544.408 254.667 544.434 302.64C559.168 304.08 573.421 310.667 583.474 321.64C593.808 332.587 599.608 347.547 599.608 362.587C599.648 422.187 599.661 481.8 599.608 541.4C599.661 558.347 592.141 575.093 579.408 586.267C569.874 594.933 557.488 599.787 544.821 601.373C543.474 615.933 545.768 630.867 543.488 645.427C539.808 665.413 521.714 681.04 501.581 682.667H99.0877C77.1277 681.813 57.421 663.68 55.2477 641.733C54.4344 628.267 55.1144 614.76 54.8744 601.267C42.181 599.853 29.8077 594.88 20.2744 586.28C7.50102 575.133 -0.0456484 558.347 0.0343516 541.4C-0.032315 482.253 0.0210177 423.12 0.00768436 363.973C-0.178982 351.373 3.48768 338.693 10.7677 328.373C20.741 313.8 37.3677 304.4 54.8744 302.68C54.9144 217.307 54.8477 131.933 54.901 46.56C54.7944 32.5733 61.4477 18.7867 72.4344 10.1333C79.4344 4.42667 88.1677 1.29333 97.0344 0ZM94.9277 46.6267C94.821 131.933 94.9277 217.253 94.8744 302.56C231.394 302.6 367.901 302.573 504.421 302.573C504.434 255.04 504.421 207.507 504.434 159.973C504.714 157.24 503.528 154.707 501.501 152.92C464.901 116.24 428.368 79.48 391.754 42.7867C389.848 40.3867 386.821 39.72 383.888 39.9733C290.061 40.04 196.248 39.9733 102.421 40C98.5543 39.4533 94.6477 42.6267 94.9277 46.6267ZM54.9944 343.227C46.4077 345.347 39.9144 353.68 40.021 362.533C39.9677 419.92 40.0344 477.307 39.9944 534.693C40.0477 539.48 39.5277 544.493 41.5544 548.987C44.621 556.76 52.901 561.8 61.181 561.427C217.608 561.387 374.034 561.467 530.461 561.387C536.461 561.333 542.874 562.173 548.421 559.293C555.648 555.907 560.061 547.88 559.648 539.987C559.608 480.853 559.674 421.72 559.608 362.587C559.661 354.773 554.714 347.147 547.434 344.213C542.554 341.973 537.048 342.64 531.848 342.587C377.154 342.573 222.434 342.573 67.741 342.587C63.4877 342.613 59.1677 342.213 54.9944 343.227ZM94.8744 601.44C94.941 612.987 94.7944 624.547 94.9277 636.107C94.6744 640.067 98.581 643.173 102.394 642.653C234.021 642.667 365.661 642.693 497.288 642.64C501.061 643.053 504.701 639.813 504.421 635.96C504.528 624.44 504.421 612.933 504.448 601.427C367.928 601.44 231.394 601.4 94.8744 601.44Z" fill="white"/>
<path d="M130.115 369.013C138.555 364.293 150.101 366.84 155.701 374.747C163.861 386.04 171.728 397.547 179.821 408.893C187.915 397.507 195.835 386.013 203.995 374.68C210.075 366.48 222.661 364.52 230.995 370.387C239.835 376.147 242.421 389.187 236.448 397.893C225.835 413.24 214.915 428.36 204.301 443.707C216.901 461.68 229.581 479.587 242.141 497.573C247.461 504.84 246.901 515.627 240.848 522.28C234.928 529.28 223.995 531.173 216.075 526.547C211.461 524.12 208.715 519.533 205.821 515.4C197.141 503.08 188.501 490.733 179.795 478.427C169.821 492.507 159.955 506.667 149.941 520.72C145.288 527.4 136.381 530.627 128.528 528.427C120.475 526.373 114.248 518.867 113.741 510.56C113.315 505.613 115.021 500.693 117.941 496.733C130.408 479.067 142.861 461.387 155.301 443.707C144.568 428.08 133.421 412.72 122.688 397.093C116.555 387.813 120.275 374.093 130.115 369.013Z" fill="white"/>
<path d="M265.447 386.507C265.394 375.56 275.714 366.053 286.607 366.973C296.767 367.4 305.447 376.547 305.381 386.707C305.461 420.827 305.381 454.947 305.421 489.067C316.234 490.027 328.901 486.107 338.021 493.733C346.647 500.6 347.501 514.707 339.807 522.587C335.501 527.413 328.887 529.307 322.581 529.053C309.754 528.96 296.914 529.373 284.101 528.92C274.074 528.48 265.461 519.493 265.474 509.48C265.354 468.493 265.407 427.493 265.447 386.507Z" fill="white"/>
<path d="M412.688 368.493C434.261 363.76 457.315 370.6 474.408 384.16C465.861 394.373 457.288 404.56 448.728 414.787C440.155 408.947 429.115 404.76 418.821 408.307C415.355 409.267 411.528 413.147 413.648 416.88C425.608 422.613 438.181 426.973 450.461 431.933C463.728 437.467 475.995 447.067 481.795 460.52C487.848 473.987 486.275 490.24 478.541 502.707C469.635 517.453 453.235 526.76 436.288 528.653C412.501 531.2 387.501 522.253 371.408 504.4C365.461 497.987 364.581 487.613 369.381 480.293C374.248 472.173 385.368 468.787 393.981 472.627C399.141 474.573 402.221 479.467 406.701 482.427C414.248 487.533 423.675 489.92 432.715 488.773C438.168 487.84 444.315 484.573 445.515 478.72C445.021 473.373 439.275 470.88 435.021 468.8C421.475 463.36 407.701 458.387 394.488 452.147C385.261 446.973 378.328 438.027 375.101 427.987C370.595 414.147 373.674 398.253 382.634 386.84C389.941 377.267 400.968 370.92 412.688 368.493Z" fill="white"/>
</svg>
